<svg xmlns="http://www.w3.org/2000/svg" width="960" height="640" viewBox="0 0 960 640">
  <rect width="100%" height="100%" fill="#14213d" />
  <rect x="36" y="36" width="888" height="568" rx="28" fill="#1f2a44" stroke="#f25f4c" stroke-width="2" />
  <text x="72" y="90" fill="#f8f4e8" font-size="28" font-family="Arial">CircuitMind Judge Preview</text>
  <text x="72" y="122" fill="#98a6c3" font-size="16" font-family="Arial">555 timer astable LED blinker at 1Hz</text>
  <g><line x1="478.1" y1="276.3" x2="478.1" y2="276.3" stroke="rgba(255,195,0,0.22)" stroke-width="2" /><line x1="478.1" y1="276.3" x2="715.1" y2="317.4" stroke="rgba(255,195,0,0.22)" stroke-width="2" /><line x1="478.1" y1="276.3" x2="553.2" y2="446.4" stroke="rgba(255,195,0,0.22)" stroke-width="2" /><line x1="478.1" y1="276.3" x2="715.1" y2="317.4" stroke="rgba(255,195,0,0.22)" stroke-width="2" /><line x1="478.1" y1="276.3" x2="587.0" y2="176.8" stroke="rgba(255,195,0,0.22)" stroke-width="2" /><line x1="478.1" y1="276.3" x2="478.1" y2="276.3" stroke="rgba(255,195,0,0.22)" stroke-width="2" /><line x1="478.1" y1="276.3" x2="587.0" y2="176.8" stroke="rgba(255,195,0,0.22)" stroke-width="2" /><line x1="478.1" y1="276.3" x2="480.0" y2="350.5" stroke="rgba(255,195,0,0.22)" stroke-width="2" /><line x1="478.1" y1="276.3" x2="349.2" y2="476.5" stroke="rgba(255,195,0,0.22)" stroke-width="2" /><line x1="478.1" y1="276.3" x2="299.2" y2="178.2" stroke="rgba(255,195,0,0.22)" stroke-width="2" /><line x1="299.2" y1="178.2" x2="270.8" y2="344.0" stroke="rgba(255,195,0,0.22)" stroke-width="2" /><line x1="478.1" y1="276.3" x2="480.0" y2="350.5" stroke="rgba(255,195,0,0.22)" stroke-width="2" /><line x1="478.1" y1="276.3" x2="349.2" y2="476.5" stroke="rgba(255,195,0,0.22)" stroke-width="2" /><line x1="478.1" y1="276.3" x2="553.2" y2="446.4" stroke="rgba(255,195,0,0.22)" stroke-width="2" /><line x1="478.1" y1="276.3" x2="270.8" y2="344.0" stroke="rgba(255,195,0,0.22)" stroke-width="2" /></g>
  <g><g><circle cx="478.1" cy="276.3" r="16" fill="#f25f4c" /><circle cx="478.1" cy="276.3" r="28" fill="none" stroke="rgba(242,95,76,0.22)" stroke-width="2" /><text x="478.1" y="320.3" fill="#f8f4e8" font-size="12" text-anchor="middle">U1 NE555</text></g><g><circle cx="715.1" cy="317.4" r="16" fill="#f25f4c" /><circle cx="715.1" cy="317.4" r="28" fill="none" stroke="rgba(242,95,76,0.22)" stroke-width="2" /><text x="715.1" y="361.4" fill="#f8f4e8" font-size="12" text-anchor="middle">R1 10k</text></g><g><circle cx="587.0" cy="176.8" r="16" fill="#f25f4c" /><circle cx="587.0" cy="176.8" r="28" fill="none" stroke="rgba(242,95,76,0.22)" stroke-width="2" /><text x="587.0" y="220.8" fill="#f8f4e8" font-size="12" text-anchor="middle">R2 47k</text></g><g><circle cx="299.2" cy="178.2" r="16" fill="#f25f4c" /><circle cx="299.2" cy="178.2" r="28" fill="none" stroke="rgba(242,95,76,0.22)" stroke-width="2" /><text x="299.2" y="222.2" fill="#f8f4e8" font-size="12" text-anchor="middle">R3 330</text></g><g><circle cx="480.0" cy="350.5" r="16" fill="#f25f4c" /><circle cx="480.0" cy="350.5" r="28" fill="none" stroke="rgba(242,95,76,0.22)" stroke-width="2" /><text x="480.0" y="394.5" fill="#f8f4e8" font-size="12" text-anchor="middle">C1 10uF</text></g><g><circle cx="349.2" cy="476.5" r="16" fill="#f25f4c" /><circle cx="349.2" cy="476.5" r="28" fill="none" stroke="rgba(242,95,76,0.22)" stroke-width="2" /><text x="349.2" y="520.5" fill="#f8f4e8" font-size="12" text-anchor="middle">C2 10nF</text></g><g><circle cx="553.2" cy="446.4" r="16" fill="#f25f4c" /><circle cx="553.2" cy="446.4" r="28" fill="none" stroke="rgba(242,95,76,0.22)" stroke-width="2" /><text x="553.2" y="490.4" fill="#f8f4e8" font-size="12" text-anchor="middle">C3 100nF</text></g><g><circle cx="270.8" cy="344.0" r="16" fill="#f25f4c" /><circle cx="270.8" cy="344.0" r="28" fill="none" stroke="rgba(242,95,76,0.22)" stroke-width="2" /><text x="270.8" y="388.0" fill="#f8f4e8" font-size="12" text-anchor="middle">D1 Red</text></g></g>
</svg>