<svg xmlns="http://www.w3.org/2000/svg" width="960" height="640" viewBox="0 0 960 640">
  <rect width="100%" height="100%" fill="#14213d" />
  <rect x="36" y="36" width="888" height="568" rx="28" fill="#1f2a44" stroke="#f25f4c" stroke-width="2" />
  <text x="72" y="90" fill="#f8f4e8" font-size="28" font-family="Arial">CircuitMind Judge Preview</text>
  <text x="72" y="122" fill="#98a6c3" font-size="16" font-family="Arial">MOSFET switch for controlling a 12V fan</text>
  <g><line x1="276.4" y1="147.5" x2="746.0" y2="147.5" stroke="rgba(255,195,0,0.22)" stroke-width="2" /><line x1="276.4" y1="147.5" x2="511.6" y2="335.1" stroke="rgba(255,195,0,0.22)" stroke-width="2" /><line x1="276.4" y1="147.5" x2="746.0" y2="147.5" stroke="rgba(255,195,0,0.22)" stroke-width="2" /><line x1="252.4" y1="492.5" x2="721.2" y2="492.5" stroke="rgba(255,195,0,0.22)" stroke-width="2" /><line x1="252.4" y1="492.5" x2="511.6" y2="335.1" stroke="rgba(255,195,0,0.22)" stroke-width="2" /><line x1="511.6" y1="335.1" x2="721.2" y2="492.5" stroke="rgba(255,195,0,0.22)" stroke-width="2" /></g>
  <g><g><circle cx="511.6" cy="335.1" r="16" fill="#f25f4c" /><circle cx="511.6" cy="335.1" r="28" fill="none" stroke="rgba(242,95,76,0.22)" stroke-width="2" /><text x="511.6" y="379.1" fill="#f8f4e8" font-size="12" text-anchor="middle">Q1 2N7002</text></g><g><circle cx="252.4" cy="492.5" r="16" fill="#f25f4c" /><circle cx="252.4" cy="492.5" r="28" fill="none" stroke="rgba(242,95,76,0.22)" stroke-width="2" /><text x="252.4" y="536.5" fill="#f8f4e8" font-size="12" text-anchor="middle">R1 10k</text></g><g><circle cx="721.2" cy="492.5" r="16" fill="#f25f4c" /><circle cx="721.2" cy="492.5" r="28" fill="none" stroke="rgba(242,95,76,0.22)" stroke-width="2" /><text x="721.2" y="536.5" fill="#f8f4e8" font-size="12" text-anchor="middle">R2 100k</text></g><g><circle cx="746.0" cy="147.5" r="16" fill="#f25f4c" /><circle cx="746.0" cy="147.5" r="28" fill="none" stroke="rgba(242,95,76,0.22)" stroke-width="2" /><text x="746.0" y="191.5" fill="#f8f4e8" font-size="12" text-anchor="middle">D1 1N4148W</text></g><g><circle cx="276.4" cy="147.5" r="16" fill="#f25f4c" /><circle cx="276.4" cy="147.5" r="28" fill="none" stroke="rgba(242,95,76,0.22)" stroke-width="2" /><text x="276.4" y="191.5" fill="#f8f4e8" font-size="12" text-anchor="middle">R3 1k</text></g></g>
</svg>