<svg xmlns="http://www.w3.org/2000/svg" width="960" height="640" viewBox="0 0 960 640">
  <rect width="100%" height="100%" fill="#14213d" />
  <rect x="36" y="36" width="888" height="568" rx="28" fill="#1f2a44" stroke="#f25f4c" stroke-width="2" />
  <text x="72" y="90" fill="#f8f4e8" font-size="28" font-family="Arial">CircuitMind Judge Preview</text>
  <text x="72" y="122" fill="#98a6c3" font-size="16" font-family="Arial">Op-amp voltage follower buffer for a sensor input</text>
  <g><line x1="291.2" y1="174.2" x2="656.9" y2="155.7" stroke="rgba(255,195,0,0.22)" stroke-width="2" /><line x1="291.2" y1="174.2" x2="614.7" y2="435.8" stroke="rgba(255,195,0,0.22)" stroke-width="2" /><line x1="291.2" y1="174.2" x2="656.9" y2="155.7" stroke="rgba(255,195,0,0.22)" stroke-width="2" /><line x1="291.2" y1="174.2" x2="614.7" y2="435.8" stroke="rgba(255,195,0,0.22)" stroke-width="2" /><line x1="291.2" y1="174.2" x2="213.8" y2="434.7" stroke="rgba(255,195,0,0.22)" stroke-width="2" /><line x1="213.8" y1="434.7" x2="291.2" y2="174.2" stroke="rgba(255,195,0,0.22)" stroke-width="2" /><line x1="291.2" y1="174.2" x2="291.2" y2="174.2" stroke="rgba(255,195,0,0.22)" stroke-width="2" /></g>
  <g><g><circle cx="291.2" cy="174.2" r="16" fill="#f25f4c" /><circle cx="291.2" cy="174.2" r="28" fill="none" stroke="rgba(242,95,76,0.22)" stroke-width="2" /><text x="291.2" y="218.2" fill="#f8f4e8" font-size="12" text-anchor="middle">U1 LM358</text></g><g><circle cx="656.9" cy="155.7" r="16" fill="#f25f4c" /><circle cx="656.9" cy="155.7" r="28" fill="none" stroke="rgba(242,95,76,0.22)" stroke-width="2" /><text x="656.9" y="199.7" fill="#f8f4e8" font-size="12" text-anchor="middle">C1 100nF</text></g><g><circle cx="614.7" cy="435.8" r="16" fill="#f25f4c" /><circle cx="614.7" cy="435.8" r="28" fill="none" stroke="rgba(242,95,76,0.22)" stroke-width="2" /><text x="614.7" y="479.8" fill="#f8f4e8" font-size="12" text-anchor="middle">C2 10uF</text></g><g><circle cx="213.8" cy="434.7" r="16" fill="#f25f4c" /><circle cx="213.8" cy="434.7" r="28" fill="none" stroke="rgba(242,95,76,0.22)" stroke-width="2" /><text x="213.8" y="478.7" fill="#f8f4e8" font-size="12" text-anchor="middle">R1 10k</text></g></g>
</svg>